<mxfile host="app.diagrams.net" modified="2024-08-08T01:06:46.868Z" agent="Mozilla/5.0 (Macintosh; Intel Mac OS X 10_15_7) AppleWebKit/537.36 (KHTML, like Gecko) Chrome/126.0.0.0 Safari/537.36" version="24.5.4" etag="g3L-B1FX1aF0RDLUv8XN" type="github">
  <diagram name="第 1 页" id="68-CXQBq9T7atfgHVCva">
    <mxGraphModel>
      <root>
        <mxCell id="0" />
        <mxCell id="1" parent="0" />
      </root>
    </mxGraphModel>
  </diagram>
</mxfile>
